<?xml version="1.0" encoding="UTF-8"?><!DOCTYPE svg PUBLIC "-//W3C//DTD SVG 1.1//EN" "http://www.w3.org/Graphics/SVG/1.1/DTD/svg11.dtd"><svg xmlns="http://www.w3.org/2000/svg" xmlns:xlink="http://www.w3.org/1999/xlink"><symbol id="home-top__icon-02" viewBox="0 0 86 86"><path stroke="#FF5900" stroke-width="16" d="M34.581 11.58l39.837 23-23 39.838-39.837-23z"/></symbol><symbol id="home-top__icon-04" viewBox="0 0 188 182"><path clip-rule="evenodd" d="M94 9l60.104 24.017L179 91l-24.896 57.983L94 173l-60.104-24.017L9 91l24.896-57.983L94 9z" stroke="#27394C" stroke-width="16"/></symbol><symbol id="home-top__icon-05" viewBox="0 0 149 150"><path d="M142.603 55.697c-24.038-24.037-63.153-23.895-87.365.317-24.212 24.213-24.354 63.327-.317 87.365" stroke="#F60" stroke-width="16"/></symbol><symbol id="icon--angle-30" viewBox="0 0 30 30"><path d="M30 0v30h-6V6H0V0h30z" fill="#000"/></symbol><symbol id="icon--arows-raduga-88" viewBox="0 0 88 44"><path fill-rule="evenodd" clip-rule="evenodd" d="M23 0h18.492L65 21.389 41.492 44H23l23.508-22.105L23 0z" fill="#F60"/><path fill-rule="evenodd" clip-rule="evenodd" d="M0 0h18.051L41 21.389 18.051 44H0l22.949-22.105L0 0z" fill="#FFD933"/><path fill-rule="evenodd" clip-rule="evenodd" d="M47 0h18.051L88 21.389 65.051 44H47l22.949-22.105L47 0z" fill="#27394C"/></symbol><symbol id="icon--check-yelow" viewBox="0 0 10 9"><path d="M.931 4.484l2.396 2.28 5.604-5.333" stroke="#fff" stroke-width="2"/></symbol><symbol id="icon--chevron-down" viewBox="0 0 448 512"><path d="M207.029 381.476L12.686 187.132c-9.373-9.373-9.373-24.569 0-33.941l22.667-22.667c9.357-9.357 24.522-9.375 33.901-.04L224 284.505l154.745-154.021c9.379-9.335 24.544-9.317 33.901.04l22.667 22.667c9.373 9.373 9.373 24.569 0 33.941L240.971 381.476c-9.373 9.372-24.569 9.372-33.942 0z"/></symbol><symbol id="icon--circle-30" viewBox="0 0 30 30"><path fill-rule="evenodd" clip-rule="evenodd" d="M30 15c0-8.284-6.716-15-15-15C6.716 0 0 6.716 0 15c0 8.284 6.716 15 15 15 8.284 0 15-6.716 15-15zM6 15a9 9 0 1118 0 9 9 0 01-18 0z" fill="#27394C"/></symbol><symbol id="icon--fb" viewBox="0 0 32 32"><path d="M32 16.098C32 7.208 24.837 0 16 0S0 7.207 0 16.098C0 24.133 5.851 30.792 13.5 32V20.751H9.437v-4.653H13.5V12.55c0-4.034 2.389-6.263 6.043-6.263 1.751 0 3.582.315 3.582.315v3.961h-2.018c-1.987 0-2.607 1.241-2.607 2.514v3.02h4.438l-.71 4.653H18.5V32C26.15 30.792 32 24.133 32 16.098z" fill="#000" fill-rule="nonzero"/></symbol><symbol id="icon--instagram-32" viewBox="0 0 32 32"><path fill-rule="evenodd" clip-rule="evenodd" d="M31.102 5.514c.393 1.01.667 2.177.742 3.874.075 1.703.081 2.245.081 6.58 0 4.336-.019 4.879-.093 6.582-.075 1.696-.35 2.857-.743 3.873a8.168 8.168 0 01-4.672 4.673c-1.01.392-2.177.667-3.873.742-1.703.075-2.246.093-6.581.093-4.336 0-4.878-.018-6.581-.093-1.697-.075-2.857-.35-3.874-.742a7.858 7.858 0 01-2.826-1.84 7.875 7.875 0 01-1.846-2.832C.443 25.413.168 24.245.094 22.55.019 20.847 0 20.304 0 15.969c0-4.335.019-4.878.1-6.587.075-1.697.35-2.857.742-3.874a7.862 7.862 0 011.84-2.826A7.791 7.791 0 015.514.836C6.524.443 7.691.168 9.388.094 11.09.019 11.633 0 15.968 0c4.336 0 4.879.019 6.588.1 1.697.075 2.857.35 3.874.742 1.06.4 2.027 1.03 2.825 1.84a7.793 7.793 0 011.847 2.832zM28.42 25.388c.218-.562.48-1.404.549-2.963.074-1.684.093-2.183.093-6.444 0-4.26-.019-4.765-.093-6.45-.07-1.553-.331-2.401-.55-2.963a4.964 4.964 0 00-1.19-1.834 4.91 4.91 0 00-1.835-1.19c-.561-.22-1.403-.481-2.963-.55-1.678-.075-2.183-.093-6.45-.093-4.26 0-4.765.018-6.45.093-1.553.069-2.401.33-2.963.55a4.957 4.957 0 00-1.833 1.19 4.853 4.853 0 00-1.198 1.834c-.219.562-.48 1.404-.549 2.963-.075 1.678-.094 2.19-.094 6.45s.019 4.766.094 6.45c.069 1.553.33 2.402.549 2.963a4.964 4.964 0 001.191 1.834c.512.53 1.142.936 1.834 1.192.562.218 1.404.48 2.963.548 1.678.075 2.19.094 6.45.094s4.766-.019 6.45-.094c1.553-.068 2.401-.33 2.963-.548a5.297 5.297 0 003.032-3.032z" fill="#000"/><path fill-rule="evenodd" clip-rule="evenodd" d="M7.766 15.969a8.205 8.205 0 018.203-8.203 8.205 8.205 0 018.203 8.203 8.205 8.205 0 01-8.203 8.203 8.205 8.205 0 01-8.203-8.203zm2.882 0a5.322 5.322 0 1010.643-.002 5.322 5.322 0 00-10.643.002z" fill="#000"/><path d="M26.411 7.442a1.915 1.915 0 11-3.83 0 1.915 1.915 0 013.83 0z" fill="#000"/></symbol><symbol id="icon--li" viewBox="0 0 32 32"><path d="M6.724 31.798V10.885H.26v20.913h6.464zm0-28.326C6.685 1.601 5.438.176 3.41.176 1.385.176.061 1.6.061 3.472c0 1.831 1.285 3.297 3.273 3.297h.038c2.066 0 3.352-1.466 3.352-3.297zm10.545 28.326V19.883c0-.638.046-1.276.233-1.73.513-1.275 1.68-2.595 3.639-2.595 2.566 0 4.176 1.457 4.176 4.325v11.915h6.507V19.564c0-6.554-3.498-9.603-8.165-9.603-3.826 0-5.505 2.139-6.438 3.595l.047-2.797h-6.496c.093 2.002 0 21.039 0 21.039h6.497z" fill="#000" fill-rule="nonzero"/></symbol><symbol id="icon--linkedin-32" viewBox="0 0 32 32"><path d="M1.039 30.219h4.158c.574 0 1.039-.465 1.039-1.039V11.004c0-.574-.465-1.039-1.039-1.039H1.039C.465 9.965 0 10.43 0 11.005V29.18c0 .574.465 1.039 1.039 1.039zM1.039 6.77h4.158c.574 0 1.039-.465 1.039-1.039V2.04C6.236 1.465 5.77 1 5.197 1H1.039C.465 1 0 1.465 0 2.039V5.73C0 6.305.465 6.77 1.039 6.77zM30.422 12.074c-.584-.77-1.446-1.402-2.585-1.898-1.14-.495-2.397-.743-3.773-.743-2.793 0-5.16 1.066-7.1 3.198-.386.424-.667.332-.667-.242v-1.385c0-.574-.465-1.039-1.038-1.039h-3.715c-.574 0-1.039.465-1.039 1.04V29.18c0 .574.465 1.039 1.04 1.039h4.157c.574 0 1.04-.465 1.04-1.039V22.86c0-2.633.158-4.438.476-5.415a4.472 4.472 0 011.764-2.352c.858-.592 1.827-.888 2.908-.888.843 0 1.564.207 2.163.622.6.414 1.032.994 1.299 1.742.266.747.4 2.393.4 4.937v7.675c0 .574.464 1.039 1.038 1.039h4.158c.574 0 1.039-.465 1.039-1.039V18.887c0-1.82-.115-3.218-.344-4.194a6.87 6.87 0 00-1.22-2.62z" fill="#000"/></symbol><symbol id="icon--logo" viewBox="0 0 120 55"><path d="M26.5 26.001V26c-.168.163-.333.334-.5.5h.008c.164-.168.328-.333.492-.499m57.671 12.875c-.411.964-.053 1.65.776 1.942.83.292 1.636.338 1.946-.673.31-1.011-.069-1.783-.898-2.075-.829-.292-1.648.395-1.824.806"/><path d="M72.185 37.025c-.057-.192 1.326-1.369 1.39-1.099.136.584-1.272 1.506-1.39 1.1m-2.37-.652c-.426-.421-.57-1.951 1.755-2.01.742-.018 1.278.451 1.624.905-1.444 1.327-2.832 1.646-3.38 1.105m-5.122 2.965c-.034-.097-.062-.375-.08-.78.14.095.301.199.48.311a4.41 4.41 0 01-.4.469m-6.963-7.425c.142-8.503 1.639-12.198 2.783-12.198 1.566 0 .044 6.198-.711 8.333a76.54 76.54 0 01-2.056 5.129c-.017-.42-.023-.843-.016-1.264m-4.135-2.422c.402.008.557.504.618 1.02-.02 1.522-.517 3.813-1.85 6.095-.396-2.863.102-7.137 1.232-7.115M39.06 26.63c-1.248.047-2.356.078-3.348.097 2.57-3.301 5.01-5.617 5.57-5.063.3.297-.364 1.933-1.075 4.923l-1.147.043m-7.414 15.69c.014 2.366-1.678 4.787-3.217 4.787-.766 0-1.394-.471-1.738-1.168-.984-1.996.645-5.488 2.29-8.407 2.151 1.707 2.654 2.988 2.665 4.788m62.793-11.483A485.408 485.408 0 0080.7 28.67a.387.387 0 00-.428.28c-.121.436-.244 1.202.214 1.63.213 2.935-.76 7.312-1.436 7.312-.938 0-.675-6.031-.585-7.48.61-.793 1.366-3.646 1.034-5.11-.237-1.046-1.477-.936-1.989-.488-1.123.981-1.62 2.84-.82 5.9-.051.116-1.215 2.024-2.552 3.569-1.215-1.121-3.172-1.269-4.429-.707 2.347-4.569 4.676-9.797 5.515-12.048.293-.784-1.64-1.732-2.03-.652-.988 2.733-4.88 12.74-7.394 16.928l-1.214-.599c0-1.903.115-4.667.427-6.643 1.069-3.517 3.526-10.573 2.296-11.834-1.295-1.328-2.888-.27-2.965 2.892-.047 1.877-.88 8.364-.898 8.502-.275.806-.839 1.905-2.055 2.977-1.02.9-2.037 1.535-2.846 1.88-.18.077-.23.287-.092.439.675.737 1.46 2.065 1.951 3.265.553 1.349.736 2.535-.022 2.535-.99 0-2.043-2.729-2.465-6.022.949-1.92 2.035-4.191 2.948-6.36 1.012-2.402 3.554-10.948.086-10.948-2.773 0-4.86 5.703-4.574 14.499.04 1.226.114 2.327.219 3.315-.162.742-1.618 3.427-2.86 3.427-.389 0-.783-.443-.987-.914.27-.336.463-.6.55-.742 2.544-4.197 2.258-7.244 2.043-7.805-.129-.338-.583-1.495-2.045-1.38-1.47.117-2.914 2.539-2.78 7.376.03 1.124.194 2.041.437 2.779-1.308 1.381-3.226 2.962-3.777 2.417-.85-.839 2.223-3.577 1.521-5.697-.53-1.6-1.79-2.98-2.378-3.564a11.61 11.61 0 00-.123-.759c-.124-.629-.458-2.297-1.91-2.126-1.679.198-1.055 2.55.6 3.783 0 0 .79 2.582-.909 5.711-.223.412-1.833 2.31-2.63 1.523-1.083-1.07-.594-6.12.418-11.43 4.044-.503 7.892-1.12 10.073-1.799.555-.173.567-1.276-.618-1.03-3.167.657-5.722.877-9.094 1.033.165-.788.339-1.572.519-2.34.436-1.865.735-3.446.145-3.963-1.848-1.62-5.358 1.606-8.891 6.223l-.248.325h-.005c-3.314.012-4.882-.12-5.869-.12-2.399 0-2.548 3.01-.969 3.01.602 0 2.484-.115 4.99-.32-.654.946-2.878 4.543-3.339 5.28-1.514-1.024-3.15-1.966-4.576-2.973-4.763-3.362-8.777-6.483-8.777-11.798 0-4.176 2.926-11.511 12.671-11.511 9.758 0 11.805 4.18 12.548 5.263.753 1.097 2.713-.14 2.144-1.037C42.312 12.298 39.376 6 27.982 6 21.038 6 13 10.632 13 20.118c0 6.522 4.379 9.665 9.556 13.029 2.017 1.31 3.598 2.344 4.835 3.21-2.494 4.231-4.304 8.531-1.991 11.29.82.977 2.091 1.471 3.096 1.329 3.54-.501 5.061-4.319 4.984-7.231-.068-2.57-1.48-4.427-3.458-6.005.82-1.399 3.43-5.897 3.922-6.605a253.61 253.61 0 005.839-.596 49.887 49.887 0 00-.796 5.934c-.096 1.305-.37 5.106 1.19 6.648 1.116 1.103 2.735.34 4.274-1.774 1.11-1.526 1.786-3.369 1.93-5.423.497.728.733 1.484.679 2.085-.141 1.56-3.167 4.42-1.216 6.348 1.301 1.286 3.89-.854 5.66-2.721.487.771 1.302 1.241 1.974 1.241 1.876 0 3.03-2.783 3.345-3.492.635 3.787 1.871 5.372 3.54 5.372 1.111 0 2.705-1.164 1.343-4.482a8.866 8.866 0 00-1.99-2.93c.84-.485 2.178-1.114 3.37-2.407-.178 3.796-.226 8.762 1.138 8.762.46 0 1.19-.81 2.065-2.11 5.165 3.011 17.185 9.107 18.73 8.872 1.522-.232 1.093-1.678 1.093-1.678s-8.894-3.508-12.054-4.974c-1.676-.777-4.782-2.295-7.02-3.395a54.28 54.28 0 001.146-1.974c.475 1.69 3.991 2.682 6.327.093.6-.799.175-1.649.175-1.649s1.597-1.533 1.931-2.14c-.01 2.141.454 6.594 2.326 6.594 2.031 0 3.152-6.022 3.152-8.614 2.442.296 7.265.97 11.798 1.809 8.38 1.552 12.347 2.352 11.996 3.007-.234.437-1.8.405-4.077.405-.916 0-.558 1.252-.118 1.357 1.137.274 5.873.498 6.282-1.492.317-1.544-2.395-3.037-13.537-4.974"/></symbol><symbol id="icon--polygon-30" viewBox="0 0 30 30"><path fill-rule="evenodd" clip-rule="evenodd" d="M25.607 4.393L15 0 4.393 4.393 0 15l4.393 10.607L15 30l10.607-4.393L30 15 25.607 4.393zM8.985 8.985L15 6.494l6.014 2.491L23.505 15l-2.491 6.014L15 23.505l-6.015-2.491L6.494 15l2.491-6.015z" fill="#F60"/></symbol><symbol id="icon--rectangle-top" viewBox="0 0 780 8"><rect width="780" height="8" rx="4" fill="#F7F7F7"/><rect width="637" height="8" rx="4" fill="#FFD933"/></symbol><symbol id="icon--square-30" viewBox="0 0 30 30"><path fill-rule="evenodd" clip-rule="evenodd" d="M30 30V0H0v30h30zM6 6h18v18H6V6z" fill="#FFD933"/></symbol><symbol id="icon--star" viewBox="0 0 20 19"><path d="M10 15.273L16.18 19l-1.635-7.029L20 7.244l-7.191-.617L10 0 7.191 6.627 0 7.244l5.455 4.727L3.82 19 10 15.273z" fill="#FFD933"/></symbol><symbol id="icon--tw" viewBox="0 0 32 32"><g fill="none" fill-rule="evenodd"><path d="M0 0h32v32H0z"/><path d="M32 6.078c-1.19.522-2.458.868-3.78 1.036a6.523 6.523 0 002.886-3.626 13.11 13.11 0 01-4.16 1.588A6.574 6.574 0 0022.154 3c-3.632 0-6.556 2.948-6.556 6.562 0 .52.044 1.02.152 1.496-5.454-.266-10.28-2.88-13.522-6.862a6.605 6.605 0 00-.898 3.316 6.57 6.57 0 002.914 5.452 6.479 6.479 0 01-2.964-.808v.072c0 3.188 2.274 5.836 5.256 6.446a6.548 6.548 0 01-1.72.216 5.8 5.8 0 01-1.242-.112c.85 2.598 3.262 4.508 6.13 4.57a13.182 13.182 0 01-8.134 2.798c-.538 0-1.054-.024-1.57-.09A18.469 18.469 0 0010.064 29c12.072 0 18.672-10 18.672-18.668 0-.29-.01-.57-.024-.848A13.087 13.087 0 0032 6.078z" fill="#000" fill-rule="nonzero"/></g></symbol><symbol id="icon--twitter-32" viewBox="0 0 32 32"><path d="M32 6.078c-1.19.522-2.458.868-3.78 1.036a6.523 6.523 0 002.886-3.626 13.11 13.11 0 01-4.16 1.588A6.574 6.574 0 0022.154 3c-3.632 0-6.556 2.948-6.556 6.562 0 .52.044 1.02.152 1.496-5.454-.266-10.28-2.88-13.522-6.862a6.605 6.605 0 00-.898 3.316 6.57 6.57 0 002.914 5.452 6.479 6.479 0 01-2.964-.808v.072c0 3.188 2.274 5.836 5.256 6.446a6.548 6.548 0 01-1.72.216 5.8 5.8 0 01-1.242-.112c.85 2.598 3.262 4.508 6.13 4.57a13.182 13.182 0 01-8.134 2.798c-.538 0-1.054-.024-1.57-.09A18.469 18.469 0 0010.064 29c12.072 0 18.672-10 18.672-18.668 0-.29-.01-.57-.024-.848A13.087 13.087 0 0032 6.078z" fill="#000"/></symbol><symbol id="icon__akses-podsak-i-kukan" viewBox="0 0 666.26 670.02"><path class="fil0" d="M558.22 25.52c62.14 53.49 46.52 173.52-34.89 268.09-75.48 87.69-181 122.7-245.5 84.7L26.75 670.01 0 646.99l251.08-291.7c-47.17-58.13-28.26-167.68 47.22-255.37 81.41-94.58 197.77-127.89 259.91-74.4zM350.69 411.44c15.8 5.89 33.42 11.66 52.12 16.47 1.48-5.12 6.2-8.87 11.79-8.87 6.78 0 12.27 5.49 12.27 12.27 0 .69-.06 1.37-.17 2.03 8.98 1.77 18.11 3.26 27.33 4.38a12.274 12.274 0 01-1.81-6.41c0-6.78 5.49-12.27 12.27-12.27 6.78 0 12.27 5.49 12.27 12.27 0 3.15-1.19 6.02-3.14 8.2 10.58.64 21.2.72 31.75.13a12.225 12.225 0 01-3.25-8.32c0-6.78 5.49-12.27 12.27-12.27 6.78 0 12.27 5.49 12.27 12.27 0 2.35-.66 4.55-1.81 6.42 9.19-1.3 18.28-3.2 27.19-5.76-.01-.22-.02-.44-.02-.66 0-6.78 5.49-12.27 12.27-12.27 4.04 0 7.63 1.96 9.87 4.97 3.91-1.71 7.76-3.58 11.56-5.62-4.85-1.64-8.34-6.23-8.34-11.63 0-6.78 5.49-12.27 12.27-12.27 6.78 0 12.27 5.49 12.27 12.27 0 .61-.04 1.2-.13 1.79a162.08 162.08 0 0019.01-15.51 12.24 12.24 0 01-5.79 1.45H614.54c-.13 0-.27.01-.41.01-6.78 0-12.27-5.49-12.27-12.27 0-6.78 5.49-12.27 12.27-12.27.14 0 .27 0 .41.01H615.01c6.78 0 12.27 5.49 12.27 12.27 0 2.12-.54 4.11-1.48 5.85.6-.62 1.2-1.22 1.79-1.85 4.93-5.26 9.31-10.71 13.21-16.33-.41.04-.83.06-1.25.06-6.78 0-12.27-5.49-12.27-12.27 0-6.78 5.49-12.27 12.27-12.27 5.09 0 9.45 3.09 11.31 7.5 1.87-3.75 3.56-7.55 5.07-11.41a12.228 12.228 0 01-3.29-8.36c0-5.85 4.1-10.75 9.58-11.97 1.89-8.15 3.09-16.46 3.73-24.88-.34.03-.68.04-1.03.04-6.78 0-12.27-5.49-12.27-12.27 0-6.78 5.49-12.27 12.27-12.27.45 0 .89.02 1.32.07-.4-8.19-1.27-16.43-2.53-24.67-6.21-.61-11.06-5.84-11.06-12.21 0-4.7 2.65-8.79 6.53-10.85-4.1-17.25-9.7-34.32-16.16-50.8-.85.19-1.74.29-2.64.29-6.78 0-12.27-5.49-12.27-12.27 0-4.29 2.2-8.07 5.54-10.26-2.08-4.62-4.21-9.17-6.37-13.64-.34 6.48-5.69 11.63-12.25 11.63-1.58 0-3.09-.3-4.48-.84-.53 3.83-1.15 7.63-1.87 11.4-1.43 7.55-3.21 15.04-5.33 22.47 1.6-4.92 6.22-8.48 11.67-8.48 6.78 0 12.27 5.49 12.27 12.27 0 6.78-5.49 12.27-12.27 12.27-6.78 0-12.27-5.49-12.27-12.27 0-1.04.13-2.05.37-3.01-1.69 5.87-3.58 11.69-5.66 17.46 3.2 2.22 5.29 5.91 5.29 10.09 0 6.78-5.49 12.27-12.27 12.27H590.01c-.14 0-.27.01-.41.01-.44 0-.87-.02-1.29-.07-7.92 17.4-17.48 34.13-28.23 49.88 1.3-.47 2.7-.73 4.16-.73.14 0 .27 0 .41.01H565.12c6.78 0 12.27 5.49 12.27 12.27 0 6.78-5.49 12.27-12.27 12.27H564.65c-.14 0-.27.01-.41.01-6.78 0-12.27-5.49-12.27-12.27v-.17c-3.2 4.31-6.49 8.54-9.85 12.68 5.62 1.12 9.85 6.08 9.85 12.03 0 6.78-5.49 12.27-12.27 12.27-5.32 0-9.85-3.39-11.55-8.13-2.78 3.03-5.61 6.02-8.51 8.97 4.56 1.79 7.79 6.23 7.79 11.43 0 6.78-5.49 12.27-12.27 12.27H514.69c-.14 0-.27.01-.41.01-5.18 0-9.61-3.21-11.41-7.74a344.58 344.58 0 01-9.59 8.27c5.05 1.52 8.73 6.21 8.73 11.75 0 6.78-5.49 12.27-12.27 12.27H489.28c-.14 0-.27.01-.41.01-6.38 0-11.63-4.88-12.22-11.11-16.46 12.01-34.04 22.45-52.42 30.75-2.24 2.97-5.8 4.9-9.81 4.9-.52 0-1.02-.03-1.52-.09-3.75 1.49-7.53 2.88-11.34 4.18-.88.3-1.76.59-2.64.88 1.51 2.04 2.41 4.57 2.41 7.3 0 6.78-5.49 12.27-12.27 12.27-6.78 0-12.27-5.49-12.27-12.27 0-.44.02-.88.07-1.3-8.47 1.83-17.07 3.14-25.69 3.83-.16.74-.38 1.46-.66 2.15zm271.24-284.81c-3.18-6.24-6.4-12.3-9.63-18.14.31 5.41.38 10.85.23 16.28.81-.17 1.65-.26 2.52-.26 2.55 0 4.92.78 6.88 2.11zM452.24 406.77c0 6.78-5.49 12.27-12.27 12.27H439.51c-.14 0-.27.01-.41.01-6.78 0-12.27-5.49-12.27-12.27 0-6.78 5.49-12.27 12.27-12.27.14 0 .27 0 .41.01H439.97c6.78 0 12.27 5.49 12.27 12.27zm150.53-147.26c0 6.78-5.49 12.27-12.27 12.27H590.03c-.14 0-.27.01-.41.01-6.78 0-12.27-5.49-12.27-12.27 0-6.78 5.49-12.27 12.27-12.27.14 0 .27 0 .41.01H590.49c6.78 0 12.27 5.49 12.27 12.27zM502.14 406.77c0 6.78-5.49 12.27-12.27 12.27H489.41c-.14 0-.27.01-.41.01-6.78 0-12.27-5.49-12.27-12.27 0-6.78 5.49-12.27 12.27-12.27.14 0 .27 0 .41.01H489.87c6.78 0 12.27 5.49 12.27 12.27zm75.27-73.63c0 6.78-5.49 12.27-12.27 12.27H564.67c-.14 0-.27.01-.41.01-6.78 0-12.27-5.49-12.27-12.27 0-6.78 5.49-12.27 12.27-12.27.14 0 .27 0 .41.01H565.14c6.78 0 12.27 5.49 12.27 12.27zm75.27-73.63c0 6.78-5.49 12.27-12.27 12.27H639.95c-.14 0-.27.01-.41.01-6.78 0-12.27-5.49-12.27-12.27 0-6.78 5.49-12.27 12.27-12.27.14 0 .27 0 .41.01H640.41c6.78 0 12.27 5.49 12.27 12.27zM552.05 406.77c0 6.78-5.49 12.27-12.27 12.27-6.78 0-12.27-5.49-12.27-12.27 0-6.78 5.49-12.27 12.27-12.27 6.78 0 12.27 5.49 12.27 12.27zm75.27-73.63c0 6.78-5.49 12.27-12.27 12.27-6.78 0-12.27-5.49-12.27-12.27 0-6.78 5.49-12.27 12.27-12.27 6.78 0 12.27 5.49 12.27 12.27zm-100.63 49.09c0 6.78-5.49 12.27-12.27 12.27-6.78 0-12.27-5.49-12.27-12.27 0-6.78 5.49-12.27 12.27-12.27 6.78 0 12.27 5.49 12.27 12.27zm75.27-73.63c0 6.78-5.49 12.27-12.27 12.27-6.78 0-12.27-5.49-12.27-12.27 0-6.78 5.49-12.27 12.27-12.27 6.78 0 12.27 5.49 12.27 12.27zm-25.36 73.63c0 6.78-5.49 12.27-12.27 12.27-6.78 0-12.27-5.49-12.27-12.27 0-6.78 5.49-12.27 12.27-12.27 6.78 0 12.27 5.49 12.27 12.27zm75.27-73.63c0 6.78-5.49 12.27-12.27 12.27-6.78 0-12.27-5.49-12.27-12.27 0-6.78 5.49-12.27 12.27-12.27 6.78 0 12.27 5.49 12.27 12.27zm.82-98.17c0 6.78-5.49 12.27-12.27 12.27H639.95c-.14 0-.27.01-.41.01-6.78 0-12.27-5.49-12.27-12.27 0-6.78 5.49-12.27 12.27-12.27.14 0 .27 0 .41.01H640.42c6.78 0 12.27 5.49 12.27 12.27zM552.06 357.69c0 6.78-5.49 12.27-12.27 12.27-6.78 0-12.27-5.49-12.27-12.27 0-6.78 5.49-12.27 12.27-12.27 6.78 0 12.27 5.49 12.27 12.27zm75.27-73.63c0 6.78-5.49 12.27-12.27 12.27-6.78 0-12.27-5.49-12.27-12.27 0-6.78 5.49-12.27 12.27-12.27 6.78 0 12.27 5.49 12.27 12.27zm-25.36 73.63c0 6.78-5.49 12.27-12.27 12.27-6.78 0-12.27-5.49-12.27-12.27 0-6.78 5.49-12.27 12.27-12.27 6.78 0 12.27 5.49 12.27 12.27zM476.8 382.23c0 6.78-5.49 12.27-12.27 12.27-6.78 0-12.27-5.49-12.27-12.27 0-6.78 5.49-12.27 12.27-12.27 6.78 0 12.27 5.49 12.27 12.27zm150.53-147.26c0 6.78-5.49 12.27-12.27 12.27-6.78 0-12.27-5.49-12.27-12.27 0-6.78 5.49-12.27 12.27-12.27 6.78 0 12.27 5.49 12.27 12.27zm-92.11-182.7c47.37 40.77 30.08 138.52-38.61 218.33s-162.78 111.45-210.15 70.68c-47.37-40.77-30.08-138.52 38.61-218.33S487.85 11.5 535.22 52.27z"/></symbol></svg>